<?xml version="1.0" standalone="no"?>
<!DOCTYPE svg PUBLIC "-//W3C//DTD SVG 20010904//EN"
 "http://www.w3.org/TR/2001/REC-SVG-20010904/DTD/svg10.dtd">
<svg version="1.0" xmlns="http://www.w3.org/2000/svg"
 width="753.000000pt" height="461.000000pt" viewBox="0 0 753.000000 461.000000"
 preserveAspectRatio="xMidYMid meet">

<g transform="translate(0.000000,461.000000) scale(0.100000,-0.100000)"
fill="#000000" stroke="none">
<path d="M3540 4466 c0 -2 7 -6 15 -10 8 -3 15 -1 15 4 0 6 -7 10 -15 10 -8 0
-15 -2 -15 -4z"/>
<path d="M3438 4443 c7 -3 16 -2 19 1 4 3 -2 6 -13 5 -11 0 -14 -3 -6 -6z"/>
<path d="M4000 4440 c0 -5 5 -10 11 -10 5 0 7 5 4 10 -3 6 -8 10 -11 10 -2 0
-4 -4 -4 -10z"/>
<path d="M4063 4443 c9 -2 23 -2 30 0 6 3 -1 5 -18 5 -16 0 -22 -2 -12 -5z"/>
<path d="M4160 4441 c0 -6 4 -13 10 -16 6 -3 7 1 4 9 -7 18 -14 21 -14 7z"/>
<path d="M3205 4429 c-11 -16 -1 -19 13 -3 7 8 8 14 3 14 -5 0 -13 -5 -16 -11z"/>
<path d="M4226 4432 c-3 -5 1 -9 9 -9 8 0 12 4 9 9 -3 4 -7 8 -9 8 -2 0 -6 -4
-9 -8z"/>
<path d="M4460 4380 c0 -5 5 -10 11 -10 5 0 7 5 4 10 -3 6 -8 10 -11 10 -2 0
-4 -4 -4 -10z"/>
<path d="M4545 4370 c3 -5 11 -10 16 -10 6 0 7 5 4 10 -3 6 -11 10 -16 10 -6
0 -7 -4 -4 -10z"/>
<path d="M2650 4309 c0 -5 5 -7 10 -4 6 3 10 8 10 11 0 2 -4 4 -10 4 -5 0 -10
-5 -10 -11z"/>
<path d="M4920 4279 c0 -5 5 -7 10 -4 6 3 10 8 10 11 0 2 -4 4 -10 4 -5 0 -10
-5 -10 -11z"/>
<path d="M4990 4260 c0 -5 5 -10 11 -10 5 0 7 5 4 10 -3 6 -8 10 -11 10 -2 0
-4 -4 -4 -10z"/>
<path d="M5090 4209 c0 -5 5 -7 10 -4 6 3 10 8 10 11 0 2 -4 4 -10 4 -5 0 -10
-5 -10 -11z"/>
<path d="M3945 4170 c3 -5 8 -10 11 -10 2 0 4 5 4 10 0 6 -5 10 -11 10 -5 0
-7 -4 -4 -10z"/>
<path d="M3240 4130 c-8 -5 -10 -10 -5 -10 6 0 17 5 25 10 8 5 11 10 5 10 -5
0 -17 -5 -25 -10z"/>
<path d="M4497 4069 c7 -7 15 -10 18 -7 3 3 -2 9 -12 12 -14 6 -15 5 -6 -5z"/>
<path d="M2938 4063 c7 -3 16 -2 19 1 4 3 -2 6 -13 5 -11 0 -14 -3 -6 -6z"/>
<path d="M2740 4010 c-13 -8 -13 -10 2 -10 9 0 20 5 23 10 8 13 -5 13 -25 0z"/>
<path d="M2636 3981 c-4 -5 3 -7 14 -4 23 6 26 13 6 13 -8 0 -17 -4 -20 -9z"/>
<path d="M5610 3971 c0 -6 4 -13 10 -16 6 -3 7 1 4 9 -7 18 -14 21 -14 7z"/>
<path d="M5665 3940 c-3 -5 -1 -10 4 -10 6 0 11 5 11 10 0 6 -2 10 -4 10 -3 0
-8 -4 -11 -10z"/>
<path d="M5690 3920 c0 -5 5 -10 10 -10 6 0 10 5 10 10 0 6 -4 10 -10 10 -5 0
-10 -4 -10 -10z"/>
<path d="M5027 3899 c7 -7 15 -10 18 -7 3 3 -2 9 -12 12 -14 6 -15 5 -6 -5z"/>
<path d="M5768 3873 c6 -3 12 -9 12 -14 0 -6 5 -7 10 -4 6 4 19 1 28 -6 15
-12 16 -11 2 3 -8 9 -26 19 -40 21 -14 2 -19 2 -12 0z"/>
<path d="M1645 3841 c-3 -5 -1 -12 5 -16 5 -3 10 1 10 9 0 18 -6 21 -15 7z"/>
<path d="M5840 3836 c0 -2 8 -10 18 -17 15 -13 16 -12 3 4 -13 16 -21 21 -21
13z"/>
<path d="M5890 3791 c0 -6 4 -12 8 -15 5 -3 9 1 9 9 0 8 -4 15 -9 15 -4 0 -8
-4 -8 -9z"/>
<path d="M5920 3769 c0 -5 5 -7 10 -4 6 3 10 8 10 11 0 2 -4 4 -10 4 -5 0 -10
-5 -10 -11z"/>
<path d="M5976 3735 c4 -8 10 -15 15 -15 4 0 6 7 3 15 -4 8 -10 15 -15 15 -4
0 -6 -7 -3 -15z"/>
<path d="M1459 3713 c-13 -16 -12 -17 4 -4 9 7 17 15 17 17 0 8 -8 3 -21 -13z"/>
<path d="M6015 3700 c-4 -6 3 -10 14 -10 25 0 27 6 6 13 -8 4 -17 2 -20 -3z"/>
<path d="M6085 3649 c11 -13 21 -26 22 -28 2 -2 3 3 3 12 0 9 -10 22 -22 28
l-23 12 20 -24z"/>
<path d="M1835 3590 c-3 -6 1 -7 9 -4 18 7 21 14 7 14 -6 0 -13 -4 -16 -10z"/>
<path d="M6160 3590 c0 -6 7 -10 15 -10 8 0 15 2 15 4 0 2 -7 6 -15 10 -8 3
-15 1 -15 -4z"/>
<path d="M1280 3581 c0 -5 5 -13 10 -16 6 -3 10 -2 10 4 0 5 -4 13 -10 16 -5
3 -10 2 -10 -4z"/>
<path d="M1222 3534 c-23 -16 -30 -44 -11 -44 5 0 7 5 3 11 -4 7 4 20 17 30
29 23 22 25 -9 3z"/>
<path d="M6236 3537 c3 -9 15 -19 26 -23 16 -5 18 -8 7 -15 -10 -6 -8 -9 9 -9
13 0 20 -4 17 -10 -3 -5 1 -10 9 -10 9 0 15 -6 14 -12 -2 -7 3 -12 10 -10 8 1
16 -7 19 -18 3 -11 9 -17 14 -14 5 3 9 0 9 -5 0 -6 6 -11 13 -11 19 0 59 -45
50 -55 -5 -4 -2 -5 4 -1 8 4 19 -4 30 -22 10 -16 24 -27 31 -25 6 3 12 0 12
-6 0 -6 18 -28 40 -48 30 -27 38 -38 28 -44 -10 -7 -9 -9 5 -9 18 0 24 -16 7
-22 -7 -2 -7 -15 0 -37 5 -19 7 -38 3 -44 -4 -6 -1 -7 6 -2 7 4 10 17 7 29 -4
16 -1 23 9 23 8 0 15 -9 15 -19 0 -10 6 -18 14 -18 8 0 18 -5 22 -12 4 -7 3
-8 -4 -4 -7 4 -12 1 -12 -8 0 -9 -5 -16 -11 -16 -5 0 -7 5 -4 10 3 6 -1 10
-10 10 -9 0 -14 -4 -11 -9 3 -5 -2 -12 -11 -16 -10 -3 -19 -1 -21 4 -2 6 -8
11 -14 11 -6 0 -3 -9 7 -20 19 -20 41 -28 30 -10 -4 6 6 10 24 10 16 0 32 6
34 13 3 7 6 3 7 -8 1 -11 3 -24 5 -30 1 -5 3 -16 3 -23 1 -7 7 -10 12 -7 15 9
12 -8 -6 -33 -8 -12 -12 -22 -9 -22 3 0 1 -8 -4 -18 -7 -13 -7 -22 0 -29 8 -8
8 -17 0 -31 -9 -17 -8 -21 7 -25 9 -3 0 -5 -20 -6 -22 -1 -38 -6 -38 -13 0 -9
-3 -9 -12 0 -8 8 -8 15 3 29 11 14 9 14 -10 -2 -23 -19 -24 -19 -18 -2 4 11 9
31 12 45 4 24 3 23 -10 -6 -15 -31 -40 -37 -28 -7 4 11 1 13 -13 8 -12 -4 -15
-3 -10 5 5 8 0 12 -14 12 -12 0 -18 5 -15 10 3 6 -1 10 -9 10 -8 0 -18 5 -22
12 -5 8 -2 9 9 5 10 -3 17 -2 17 3 0 6 -11 10 -24 10 -14 0 -33 11 -44 25 -11
13 -22 22 -24 19 -3 -2 51 -63 121 -133 69 -71 162 -169 207 -218 45 -48 115
-125 157 -170 91 -99 109 -141 82 -194 -10 -19 -46 -63 -80 -99 -34 -36 -92
-101 -130 -145 -37 -44 -160 -174 -274 -290 -203 -206 -264 -254 -278 -219 -3
8 0 20 6 28 14 16 13 856 -1 856 -9 0 -10 -6 -10 -125 0 -49 -5 -96 -10 -102
-7 -9 -7 -13 0 -13 7 0 9 -13 7 -32 -3 -18 -5 -77 -6 -131 -1 -96 -1 -98 -20
-81 -19 17 -19 17 -4 -19 14 -35 14 -38 -2 -44 -9 -4 -19 -1 -21 5 -2 7 -8 12
-14 12 -7 0 -6 -5 1 -14 13 -16 -2 -32 -19 -21 -5 3 -10 1 -10 -4 0 -6 5 -11
10 -11 6 0 10 -9 10 -21 0 -12 -5 -19 -12 -16 -7 2 -12 10 -10 16 1 6 -4 11
-12 11 -8 0 -17 6 -19 13 -3 7 -6 5 -6 -5 -1 -10 3 -18 7 -18 4 0 6 -16 4 -35
-3 -27 -9 -35 -24 -35 -13 0 -18 -5 -15 -14 5 -12 1 -13 -24 -4 -16 5 -27 14
-24 18 3 5 -1 10 -7 13 -10 3 -10 7 1 21 12 14 12 16 -3 10 -20 -8 -20 -24 -1
-50 16 -21 20 -54 6 -54 -5 0 -13 -9 -16 -20 -7 -23 -35 -27 -35 -5 0 8 -8 15
-17 16 -11 0 -13 3 -5 6 6 2 10 9 6 14 -3 5 -7 28 -9 52 -2 23 -6 73 -10 111
-6 53 -5 70 6 77 12 7 12 9 0 9 -10 0 -12 10 -7 39 3 22 2 42 -3 46 -6 3 -10
-153 -11 -396 0 -295 -4 -406 -13 -420 -7 -11 -34 -34 -61 -51 -27 -18 -66
-47 -88 -65 -25 -21 -51 -33 -69 -33 -16 0 -29 -4 -29 -10 0 -5 -4 -10 -10
-10 -13 0 -13 47 0 55 14 8 13 695 -1 695 -5 0 -8 -3 -8 -7 1 -5 0 -11 -1 -15
-1 -5 -2 -27 -2 -50 0 -24 -5 -49 -11 -55 -6 -9 -6 -17 1 -26 13 -15 4 -60 -9
-51 -5 3 -9 -2 -9 -10 0 -9 4 -16 10 -16 5 0 9 -15 7 -34 -1 -19 -5 -32 -9
-30 -4 2 -9 0 -12 -5 -4 -5 -2 -12 4 -16 16 -10 12 -25 -5 -19 -8 4 -15 1 -15
-5 0 -6 4 -11 9 -11 5 0 7 -9 4 -20 -5 -21 -33 -28 -33 -9 0 5 5 7 12 3 7 -4
8 -3 4 4 -9 15 -46 16 -46 2 0 -5 5 -10 10 -10 6 0 10 -4 10 -10 0 -5 -17 -7
-41 -4 -29 4 -39 3 -35 -5 4 -6 11 -9 16 -6 5 3 12 0 16 -6 4 -8 -5 -9 -30 -6
-21 3 -35 3 -32 0 10 -10 -33 -45 -58 -47 -17 0 -24 -6 -21 -14 3 -9 0 -10
-15 -2 -11 6 -17 17 -14 24 3 8 1 17 -5 21 -16 9 -13 35 3 29 8 -3 17 -1 21 5
3 6 -1 11 -10 11 -15 0 -24 13 -29 42 -1 7 -7 22 -14 33 -9 16 -11 -52 -12
-311 0 -372 6 -345 -80 -378 -25 -10 -60 -27 -78 -38 -24 -15 -38 -18 -58 -11
l-26 9 -5 329 c-4 304 -9 366 -27 336 -4 -6 -3 -11 3 -11 11 0 13 -98 1 -105
-4 -2 -5 -17 -2 -31 4 -21 2 -26 -10 -22 -9 4 -15 0 -15 -8 0 -8 7 -14 14 -14
8 0 12 -4 8 -10 -3 -5 -13 -6 -22 -3 -12 5 -15 2 -10 -10 8 -20 -22 -24 -41
-5 -9 9 -12 9 -12 -3 0 -12 -2 -12 -11 1 -9 12 -10 10 -6 -8 5 -19 3 -21 -9
-11 -8 7 -12 21 -9 33 3 12 2 15 -1 8 -3 -6 -10 -10 -15 -7 -5 4 -6 -1 -2 -10
4 -13 1 -16 -13 -13 -11 2 -27 -6 -36 -17 -17 -20 -17 -20 -18 0 0 11 -2 36
-4 55 -2 19 -4 50 -4 69 -1 19 -5 31 -9 28 -4 -4 -8 -161 -11 -350 -2 -188 -7
-345 -11 -350 -19 -20 -378 -100 -601 -133 -169 -26 -624 -26 -810 -1 -510 70
-951 224 -1365 475 -49 30 -117 70 -150 90 -299 178 -728 557 -1136 1005 -256
280 -252 272 -157 379 34 39 117 127 183 196 66 68 122 128 123 133 2 5 38 43
79 84 70 71 74 76 58 92 -17 16 -17 16 -11 -3 8 -25 -31 -54 -46 -32 -7 10 -9
10 -7 -2 3 -34 -3 -40 -54 -47 -28 -4 -56 -6 -60 -5 -5 1 -6 -2 -3 -6 3 -5 17
-7 31 -4 19 3 25 0 25 -14 0 -11 -10 -25 -21 -33 -19 -11 -21 -11 -16 3 4 9 2
16 -3 16 -6 0 -10 -7 -10 -16 0 -8 -5 -12 -10 -9 -6 4 -19 1 -28 -7 -15 -11
-15 -11 -5 3 7 9 9 20 5 24 -4 5 1 5 11 2 19 -7 24 17 5 29 -7 4 -8 3 -4 -4 4
-7 1 -12 -8 -12 -21 0 -16 23 7 32 19 8 24 28 6 28 -5 0 -7 -5 -3 -11 4 -7 1
-10 -7 -7 -8 3 -13 12 -11 19 2 7 4 26 4 41 1 26 18 42 18 17 0 -5 5 -7 11 -4
7 5 5 13 -6 25 -11 12 -13 20 -6 25 6 3 11 11 11 16 0 6 -3 8 -7 6 -5 -3 -9 9
-10 26 0 18 1 26 4 20 2 -7 9 -13 14 -13 12 0 8 32 -5 41 -5 4 4 14 20 23 16
8 24 15 17 16 -7 0 -10 7 -7 15 3 8 9 14 12 13 4 0 14 0 22 1 13 1 13 2 0 11
-9 6 -10 10 -3 10 6 0 15 9 18 21 4 13 11 17 18 11 16 -12 59 -13 52 -1 -4 5
-15 9 -26 9 -10 0 -19 4 -19 9 0 14 26 32 34 23 4 -4 6 0 4 8 -2 9 4 14 14 14
10 -1 20 7 23 17 4 11 10 19 15 19 5 0 12 9 15 20 3 11 11 20 16 20 6 0 30 20
55 45 73 74 39 51 -82 -56 -188 -166 -417 -400 -715 -733 -200 -223 -209 -237
-194 -288 11 -34 38 -68 269 -338 206 -239 516 -561 686 -710 46 -41 116 -104
154 -139 89 -80 301 -239 481 -359 143 -96 510 -284 690 -355 313 -124 686
-210 1041 -242 428 -38 851 -4 1264 100 622 158 1146 441 1711 923 171 147
528 515 753 777 128 149 240 282 249 297 32 51 23 96 -36 169 -136 173 -599
678 -731 799 -28 25 -74 68 -103 95 -71 67 -92 85 -99 85 -4 0 -16 10 -28 23
-17 19 -66 59 -134 110 -9 7 -11 6 -6 -6z m-5364 -709 c-7 -7 -12 -8 -12 -2 0
14 12 26 19 19 2 -3 -1 -11 -7 -17z m5807 -17 c12 -8 9 -11 -12 -17 -30 -7
-43 -1 -32 15 8 13 25 14 44 2z m-510 -982 c-13 -25 -29 -33 -29 -15 0 9 5 16
11 16 5 0 8 4 5 8 -3 5 1 9 9 9 10 0 11 -5 4 -18z m-1305 -670 c3 -3 -6 -6
-19 -7 -14 -1 -25 3 -25 8 0 10 35 9 44 -1z"/>
<path d="M1143 3471 c-24 -20 -30 -41 -12 -41 5 0 8 4 4 9 -3 5 7 19 21 30 15
12 23 21 18 21 -5 -1 -19 -9 -31 -19z"/>
<path d="M1470 3335 c-8 -9 -8 -15 -2 -15 12 0 26 19 19 26 -2 2 -10 -2 -17
-11z"/>
<path d="M6096 3272 c-3 -6 -1 -14 5 -17 14 -9 20 -2 10 14 -6 8 -11 9 -15 3z"/>
<path d="M975 3259 c-4 -6 -5 -12 -2 -15 2 -3 7 2 10 11 7 17 1 20 -8 4z"/>
<path d="M6500 3249 c0 -5 5 -7 10 -4 6 3 10 8 10 11 0 2 -4 4 -10 4 -5 0 -10
-5 -10 -11z"/>
<path d="M6537 3233 c-4 -3 -7 -11 -7 -17 0 -6 5 -5 12 2 6 6 9 14 7 17 -3 3
-9 2 -12 -2z"/>
<path d="M6155 3210 c-3 -5 -1 -10 4 -10 6 0 11 5 11 10 0 6 -2 10 -4 10 -3 0
-8 -4 -11 -10z"/>
<path d="M6180 3190 c0 -5 4 -10 9 -10 6 0 13 5 16 10 3 6 -1 10 -9 10 -9 0
-16 -4 -16 -10z"/>
<path d="M870 3174 c0 -8 5 -12 10 -9 6 4 8 11 5 16 -9 14 -15 11 -15 -7z"/>
<path d="M6535 3180 c-4 -6 -11 -8 -16 -5 -5 4 -9 1 -9 -4 0 -16 19 -13 36 4
9 8 11 15 5 15 -5 0 -13 -5 -16 -10z"/>
<path d="M1246 3154 c-5 -14 -4 -15 9 -4 17 14 19 20 6 20 -5 0 -12 -7 -15
-16z"/>
<path d="M966 3147 c3 -10 9 -15 12 -12 3 3 0 11 -7 18 -10 9 -11 8 -5 -6z"/>
<path d="M6534 3142 c-9 -5 -8 -11 2 -20 12 -11 14 -9 14 8 0 22 0 23 -16 12z"/>
<path d="M890 3130 c-13 -8 -12 -10 3 -10 9 0 17 5 17 10 0 12 -1 12 -20 0z"/>
<path d="M6260 3126 c0 -2 8 -10 18 -17 15 -13 16 -12 3 4 -13 16 -21 21 -21
13z"/>
<path d="M6560 3120 c0 -5 5 -10 11 -10 5 0 7 5 4 10 -3 6 -8 10 -11 10 -2 0
-4 -4 -4 -10z"/>
<path d="M845 3110 c3 -5 8 -10 11 -10 2 0 4 5 4 10 0 6 -5 10 -11 10 -5 0 -7
-4 -4 -10z"/>
<path d="M960 3100 c-9 -6 -10 -10 -3 -10 6 0 15 5 18 10 8 12 4 12 -15 0z"/>
<path d="M810 3078 c0 -19 2 -20 10 -8 13 19 13 30 0 30 -5 0 -10 -10 -10 -22z"/>
<path d="M1165 3090 c-4 -6 -11 -8 -16 -5 -5 4 -9 -2 -9 -11 0 -16 2 -15 23 2
12 10 24 20 26 21 2 2 -1 3 -7 3 -6 0 -14 -5 -17 -10z"/>
<path d="M890 3080 c0 -5 -12 -10 -26 -10 -30 0 -55 -22 -44 -39 5 -9 9 -6 13
10 6 22 6 22 24 3 10 -11 15 -15 11 -10 -13 17 -9 26 11 26 10 0 21 7 25 15 3
8 1 15 -4 15 -6 0 -10 -4 -10 -10z"/>
<path d="M6323 3075 c0 -8 4 -15 9 -15 4 0 8 4 8 9 0 6 -4 12 -8 15 -5 3 -9
-1 -9 -9z"/>
<path d="M6510 3071 c0 -6 4 -13 10 -16 6 -3 7 1 4 9 -7 18 -14 21 -14 7z"/>
<path d="M1113 3050 c1 -21 10 -18 13 5 1 8 -2 15 -6 15 -5 0 -8 -9 -7 -20z"/>
<path d="M6356 3052 c-3 -5 1 -9 9 -9 8 0 12 4 9 9 -3 4 -7 8 -9 8 -2 0 -6 -4
-9 -8z"/>
<path d="M6637 3027 c-3 -9 1 -18 9 -21 16 -6 18 2 5 22 -7 11 -9 11 -14 -1z"/>
<path d="M801 3025 c0 -5 3 -17 7 -26 6 -14 9 -15 20 -3 10 11 10 14 -2 14 -8
0 -17 6 -19 13 -3 6 -5 8 -6 2z"/>
<path d="M1081 3023 c-1 -7 -8 -13 -17 -13 -8 0 -12 -4 -9 -10 3 -5 -1 -10 -9
-10 -8 0 -18 -4 -21 -10 -11 -17 19 -10 43 10 13 11 21 25 19 32 -4 10 -6 10
-6 1z"/>
<path d="M6588 2993 c7 -3 16 -2 19 1 4 3 -2 6 -13 5 -11 0 -14 -3 -6 -6z"/>
<path d="M6626 2991 c-4 -5 -2 -12 4 -16 7 -4 7 -12 0 -26 -14 -25 -9 -24 26
7 27 24 28 25 5 19 -15 -5 -21 -3 -17 3 3 6 2 13 -3 16 -5 4 -12 2 -15 -3z"/>
<path d="M832 2970 c0 -14 2 -19 5 -12 2 6 2 18 0 25 -3 6 -5 1 -5 -13z"/>
<path d="M900 2979 c0 -5 5 -7 10 -4 6 3 10 8 10 11 0 2 -4 4 -10 4 -5 0 -10
-5 -10 -11z"/>
<path d="M4200 2980 c-13 -8 -13 -10 2 -10 9 0 20 5 23 10 8 13 -5 13 -25 0z"/>
<path d="M4266 2979 c6 -11 57 -10 99 1 23 6 13 8 -37 8 -37 0 -65 -4 -62 -9z"/>
<path d="M4418 2983 c6 -2 18 -2 25 0 6 3 1 5 -13 5 -14 0 -19 -2 -12 -5z"/>
<path d="M4468 2983 c7 -3 16 -2 19 1 4 3 -2 6 -13 5 -11 0 -14 -3 -6 -6z"/>
<path d="M4508 2983 c7 -3 16 -2 19 1 4 3 -2 6 -13 5 -11 0 -14 -3 -6 -6z"/>
<path d="M4547 2980 c4 -5 44 -10 88 -12 44 -2 89 -8 100 -13 20 -8 20 -8 1
13 -17 20 -29 22 -109 21 -49 -1 -85 -5 -80 -9z"/>
<path d="M6560 2965 c0 -8 2 -15 4 -15 2 0 6 7 10 15 3 8 1 15 -4 15 -6 0 -10
-7 -10 -15z"/>
<path d="M805 2960 c3 -5 8 -10 11 -10 2 0 4 5 4 10 0 6 -5 10 -11 10 -5 0 -7
-4 -4 -10z"/>
<path d="M851 2938 c1 -18 2 -19 6 -5 4 17 6 17 31 2 l27 -16 -24 20 c-30 27
-41 26 -40 -1z"/>
<path d="M801 2909 c-1 -23 2 -26 24 -21 31 5 40 18 19 26 -8 3 -12 2 -9 -4 3
-6 -1 -10 -9 -10 -8 0 -17 8 -19 18 -3 11 -5 8 -6 -9z"/>
<path d="M6640 2919 c0 -5 5 -7 10 -4 6 3 10 8 10 11 0 2 -4 4 -10 4 -5 0 -10
-5 -10 -11z"/>
<path d="M770 2910 c0 -5 5 -10 11 -10 5 0 7 5 4 10 -3 6 -8 10 -11 10 -2 0
-4 -4 -4 -10z"/>
<path d="M6620 2892 c0 -5 7 -9 15 -9 8 0 15 4 15 9 0 4 -7 8 -15 8 -8 0 -15
-4 -15 -8z"/>
<path d="M6631 2854 c0 -11 3 -14 6 -6 3 7 2 16 -1 19 -3 4 -6 -2 -5 -13z"/>
<path d="M6200 2683 c1 -18 18 -35 24 -24 4 6 4 16 1 21 -7 12 -25 13 -25 3z"/>
<path d="M6214 2610 c3 -19 2 -29 -4 -25 -6 3 -10 1 -10 -5 0 -7 6 -10 13 -8
14 5 18 68 4 68 -5 0 -7 -14 -3 -30z"/>
<path d="M1910 2539 c0 -5 5 -7 10 -4 6 3 10 8 10 11 0 2 -4 4 -10 4 -5 0 -10
-5 -10 -11z"/>
<path d="M6221 2528 c0 -10 -6 -18 -12 -18 -8 0 -9 -4 0 -13 6 -8 8 -18 4 -23
-4 -5 -2 -4 5 2 8 7 12 24 9 40 -2 16 -5 21 -6 12z"/>
<path d="M1590 2490 c0 -5 7 -7 15 -4 8 4 15 8 15 10 0 2 -7 4 -15 4 -8 0 -15
-4 -15 -10z"/>
<path d="M6205 2450 c-3 -5 -2 -10 4 -10 5 0 13 5 16 10 3 6 2 10 -4 10 -5 0
-13 -4 -16 -10z"/>
<path d="M1228 2393 c7 -3 16 -2 19 1 4 3 -2 6 -13 5 -11 0 -14 -3 -6 -6z"/>
<path d="M1190 2316 c-14 -26 -7 -61 10 -51 5 3 10 11 10 16 0 6 -4 7 -10 4
-13 -8 -13 1 1 27 6 11 9 22 6 24 -2 2 -9 -7 -17 -20z"/>
<path d="M1186 2220 c-5 -30 -3 -37 23 -88 6 -13 9 -27 7 -31 -6 -9 63 -75
104 -102 41 -26 157 -44 182 -28 10 7 10 9 -2 10 -8 1 -23 0 -34 -1 -13 -1
-16 2 -10 12 6 11 5 11 -8 0 -12 -10 -18 -10 -23 -1 -6 8 -10 7 -16 -2 -6 -10
-9 -11 -9 -1 0 6 -11 12 -24 12 -13 0 -27 7 -30 16 -3 9 -12 14 -19 11 -16 -6
-35 15 -29 32 3 8 0 11 -7 7 -6 -4 -11 -1 -11 8 0 9 -5 16 -11 16 -5 0 -7 -6
-4 -12 4 -7 -3 -2 -14 11 -12 13 -21 33 -21 45 0 17 -2 18 -10 6 -7 -11 -10
-6 -11 20 -2 84 -12 111 -23 60z"/>
<path d="M5338 2143 c7 -3 16 -2 19 1 4 3 -2 6 -13 5 -11 0 -14 -3 -6 -6z"/>
<path d="M5533 2143 c9 -2 25 -2 35 0 9 3 1 5 -18 5 -19 0 -27 -2 -17 -5z"/>
<path d="M1605 2020 c-3 -5 -1 -10 4 -10 6 0 11 5 11 10 0 6 -2 10 -4 10 -3 0
-8 -4 -11 -10z"/>
<path d="M1528 1983 c7 -3 16 -2 19 1 4 3 -2 6 -13 5 -11 0 -14 -3 -6 -6z"/>
<path d="M6097 1983 c-4 -3 -7 -11 -7 -17 0 -6 5 -5 12 2 6 6 9 14 7 17 -3 3
-9 2 -12 -2z"/>
<path d="M6166 1973 c5 -5 12 -12 16 -18 4 -6 8 -2 8 8 0 9 -7 17 -17 17 -9 0
-12 -3 -7 -7z"/>
<path d="M6130 1908 c0 -4 4 -8 9 -8 6 0 12 4 15 8 3 5 -1 9 -9 9 -8 0 -15 -4
-15 -9z"/>
<path d="M1786 1888 c3 -5 10 -6 15 -3 13 9 11 12 -6 12 -8 0 -12 -4 -9 -9z"/>
<path d="M6030 1896 c0 -2 7 -7 16 -10 8 -3 12 -2 9 4 -6 10 -25 14 -25 6z"/>
<path d="M6100 1876 c0 -9 5 -16 10 -16 6 0 10 4 10 9 0 6 -4 13 -10 16 -5 3
-10 -1 -10 -9z"/>
<path d="M5610 1860 c0 -11 4 -20 9 -20 6 0 9 9 8 20 -1 11 -5 20 -9 20 -4 0
-8 -9 -8 -20z"/>
<path d="M6040 1835 c-7 -9 -8 -15 -2 -15 5 0 12 7 16 15 3 8 4 15 2 15 -2 0
-9 -7 -16 -15z"/>
<path d="M5615 1810 c3 -5 8 -10 11 -10 2 0 4 5 4 10 0 6 -5 10 -11 10 -5 0
-7 -4 -4 -10z"/>
<path d="M5931 1804 c0 -11 3 -14 6 -6 3 7 2 16 -1 19 -3 4 -6 -2 -5 -13z"/>
<path d="M1915 1780 c3 -5 8 -10 11 -10 2 0 4 5 4 10 0 6 -5 10 -11 10 -5 0
-7 -4 -4 -10z"/>
<path d="M2165 1780 c3 -5 10 -10 16 -10 5 0 9 5 9 10 0 6 -7 10 -16 10 -8 0
-12 -4 -9 -10z"/>
<path d="M6030 1766 c0 -8 -6 -16 -12 -19 -7 -2 -10 -7 -7 -11 4 -4 13 -1 20
7 8 7 21 11 29 9 11 -4 11 -2 -2 11 -20 21 -28 21 -28 3z"/>
<path d="M1970 1749 c0 -5 5 -7 10 -4 6 3 10 8 10 11 0 2 -4 4 -10 4 -5 0 -10
-5 -10 -11z"/>
<path d="M2565 1750 c-3 -5 -1 -10 4 -10 6 0 11 5 11 10 0 6 -2 10 -4 10 -3 0
-8 -4 -11 -10z"/>
<path d="M5925 1749 c-4 -6 -4 -13 -1 -16 3 -4 6 -1 6 6 0 7 4 10 9 6 5 -3 12
-1 16 5 3 5 -1 10 -9 10 -8 0 -18 -5 -21 -11z"/>
<path d="M1995 1730 c3 -5 8 -10 11 -10 2 0 4 5 4 10 0 6 -5 10 -11 10 -5 0
-7 -4 -4 -10z"/>
<path d="M2490 1710 c0 -5 4 -10 9 -10 6 0 13 5 16 10 3 6 -1 10 -9 10 -9 0
-16 -4 -16 -10z"/>
<path d="M5278 1713 c6 -2 18 -2 25 0 6 3 1 5 -13 5 -14 0 -19 -2 -12 -5z"/>
<path d="M5967 1709 c7 -7 15 -10 18 -7 3 3 -2 9 -12 12 -14 6 -15 5 -6 -5z"/>
<path d="M2920 1692 c0 -5 7 -9 15 -9 8 0 12 4 9 9 -3 4 -9 8 -15 8 -5 0 -9
-4 -9 -8z"/>
<path d="M5945 1690 c-3 -5 -1 -18 5 -27 10 -16 11 -16 6 -1 -3 9 0 18 7 21 8
2 8 5 0 10 -7 4 -14 3 -18 -3z"/>
<path d="M2050 1666 c0 -8 5 -18 10 -21 6 -3 10 1 10 9 0 8 -4 18 -10 21 -5 3
-10 -1 -10 -9z"/>
<path d="M2685 1640 c4 -6 11 -8 16 -5 14 9 11 15 -7 15 -8 0 -12 -5 -9 -10z"/>
<path d="M2046 1622 c-2 -4 -1 -14 5 -22 7 -12 9 -10 9 8 0 23 -5 28 -14 14z"/>
<path d="M2545 1580 c4 -6 11 -8 16 -5 14 9 11 15 -7 15 -8 0 -12 -5 -9 -10z"/>
<path d="M2030 1532 c0 -18 5 -32 10 -32 6 0 8 11 4 28 -10 39 -14 40 -14 4z"/>
<path d="M5274 1525 c-1 -14 2 -25 7 -25 5 0 9 11 9 25 0 33 -15 33 -16 0z"/>
<path d="M5565 1540 c-3 -5 1 -10 10 -10 9 0 13 5 10 10 -3 6 -8 10 -10 10 -2
0 -7 -4 -10 -10z"/>
<path d="M2526 1483 c-6 -14 -5 -15 5 -6 7 7 10 15 7 18 -3 3 -9 -2 -12 -12z"/>
<path d="M4615 1480 c-27 -30 -12 -34 15 -5 13 14 19 25 13 25 -5 0 -18 -9
-28 -20z"/>
<path d="M2050 1450 c5 -17 8 -33 8 -36 0 -3 13 -25 30 -49 45 -65 99 -89 197
-89 86 -1 124 13 178 63 31 30 33 37 11 45 -9 4 -13 2 -8 -5 4 -6 0 -15 -7
-20 -10 -6 -16 -2 -21 14 -5 18 -6 17 -7 -9 -1 -34 -28 -54 -43 -32 -6 10 -8
8 -8 -4 0 -12 -8 -18 -22 -19 -13 0 -31 -2 -40 -4 -13 -2 -18 3 -19 18 0 20
-1 20 -8 4 -9 -25 -25 -23 -33 5 l-6 23 -1 -24 c-1 -19 -5 -22 -23 -17 -13 3
-27 6 -33 6 -5 0 -3 5 5 10 11 7 8 10 -16 10 -39 0 -77 34 -70 63 3 12 3 16 0
10 -8 -18 -24 -16 -24 2 0 8 -4 15 -9 15 -5 0 -7 10 -4 23 4 18 3 19 -6 7 -9
-13 -11 -13 -11 3 0 9 -4 17 -9 17 -6 0 -6 -12 -1 -30z"/>
<path d="M5530 1466 c7 -7 13 -7 20 0 6 6 3 10 -10 10 -13 0 -16 -4 -10 -10z"/>
<path d="M5311 1454 c0 -11 3 -14 6 -6 3 7 2 16 -1 19 -3 4 -6 -2 -5 -13z"/>
<path d="M5490 1454 c0 -8 5 -12 10 -9 6 4 8 11 5 16 -9 14 -15 11 -15 -7z"/>
<path d="M5465 1429 c-4 -6 -5 -12 -2 -15 2 -3 7 2 10 11 7 17 1 20 -8 4z"/>
<path d="M4784 1422 c3 -5 0 -13 -6 -15 -8 -3 -6 -6 5 -6 19 -1 23 14 5 25 -6
4 -8 3 -4 -4z"/>
<path d="M4836 1415 c-24 -18 -14 -20 15 -2 17 10 23 10 26 0 6 -16 33 -17 33
-2 0 5 -4 7 -10 4 -5 -3 -10 -1 -10 4 0 16 -32 13 -54 -4z"/>
<path d="M4923 1416 c-3 -5 -1 -6 5 -2 8 4 12 0 12 -10 0 -16 1 -16 13 -2 6 9
19 18 27 21 8 3 0 5 -18 4 -19 -1 -36 -6 -39 -11z"/>
<path d="M5376 1395 c-3 -8 -2 -24 2 -35 7 -19 8 -19 20 1 10 16 10 19 1 13
-9 -5 -11 -1 -7 14 7 25 -7 30 -16 7z"/>
<path d="M2130 1381 c0 -5 6 -14 14 -20 16 -13 32 2 21 19 -8 12 -35 13 -35 1z"/>
<path d="M4765 1381 c-3 -5 -2 -12 3 -15 5 -3 9 1 9 9 0 17 -3 19 -12 6z"/>
<path d="M2225 1370 c3 -5 8 -10 11 -10 2 0 4 5 4 10 0 6 -5 10 -11 10 -5 0
-7 -4 -4 -10z"/>
<path d="M2341 1364 c0 -11 3 -14 6 -6 3 7 2 16 -1 19 -3 4 -6 -2 -5 -13z"/>
<path d="M4175 1320 c-3 -5 -1 -10 4 -10 6 0 11 5 11 10 0 6 -2 10 -4 10 -3 0
-8 -4 -11 -10z"/>
<path d="M4395 1310 c-3 -5 1 -10 10 -10 9 0 13 5 10 10 -3 6 -8 10 -10 10 -2
0 -7 -4 -10 -10z"/>
<path d="M4135 1301 c-3 -5 0 -13 6 -17 7 -4 9 -3 5 4 -3 5 0 13 6 15 9 4 10
6 1 6 -6 1 -14 -3 -18 -8z"/>
<path d="M4968 1303 c7 -3 16 -2 19 1 4 3 -2 6 -13 5 -11 0 -14 -3 -6 -6z"/>
<path d="M3090 1292 c0 -5 7 -13 16 -16 10 -4 14 -1 12 6 -5 15 -28 23 -28 10z"/>
<path d="M4098 1283 c7 -3 16 -2 19 1 4 3 -2 6 -13 5 -11 0 -14 -3 -6 -6z"/>
<path d="M4811 1274 c0 -11 3 -14 6 -6 3 7 2 16 -1 19 -3 4 -6 -2 -5 -13z"/>
<path d="M4921 1274 c0 -11 3 -14 6 -6 3 7 2 16 -1 19 -3 4 -6 -2 -5 -13z"/>
<path d="M4310 1260 c0 -5 5 -10 11 -10 5 0 7 5 4 10 -3 6 -8 10 -11 10 -2 0
-4 -4 -4 -10z"/>
<path d="M3997 1253 c-10 -9 -9 -23 2 -23 5 0 11 7 15 15 5 15 -5 20 -17 8z"/>
<path d="M4832 1240 c0 -14 2 -19 5 -12 2 6 2 18 0 25 -3 6 -5 1 -5 -13z"/>
<path d="M4868 1253 c7 -3 16 -2 19 1 4 3 -2 6 -13 5 -11 0 -14 -3 -6 -6z"/>
<path d="M4941 1231 c-1 -24 2 -32 9 -25 7 7 7 19 1 35 -9 23 -10 22 -10 -10z"/>
<path d="M3186 1238 c3 -5 10 -6 15 -3 13 9 11 12 -6 12 -8 0 -12 -4 -9 -9z"/>
<path d="M4270 1241 c0 -5 -13 -14 -30 -20 -16 -5 -30 -14 -30 -20 0 -7 10 -6
30 0 17 6 30 15 30 19 0 5 8 10 18 12 16 3 16 4 0 10 -10 4 -18 3 -18 -1z"/>
<path d="M3530 1225 c7 -9 15 -13 17 -11 7 7 -7 26 -19 26 -6 0 -6 -6 2 -15z"/>
<path d="M3933 1230 c-13 -5 -23 -15 -22 -22 0 -10 2 -10 6 0 2 6 13 12 24 12
10 0 19 5 19 10 0 6 -1 10 -2 9 -2 0 -13 -4 -25 -9z"/>
<path d="M3865 1220 c-8 -13 5 -13 25 0 13 8 13 10 -2 10 -9 0 -20 -4 -23 -10z"/>
<path d="M4165 1213 c5 -18 2 -23 -14 -23 -11 0 -23 -5 -27 -11 -3 -6 -17 -9
-30 -6 -13 2 -21 0 -18 -4 3 -5 -5 -10 -18 -11 -37 -2 -42 -3 -56 -11 -7 -5
-15 -2 -19 9 -6 15 -7 15 -14 -4 -8 -22 -27 -27 -79 -23 -41 3 -54 6 -70 16
-13 8 -13 6 -1 -8 13 -17 10 -17 -281 -6 -10 0 -18 5 -18 10 0 5 -13 7 -29 4
-17 -3 -35 0 -43 7 -7 7 -26 13 -43 13 -16 0 -35 4 -42 8 -7 5 -27 13 -45 17
-18 4 -42 11 -53 15 -16 6 -15 3 5 -13 13 -11 27 -20 30 -19 3 1 14 -4 25 -10
31 -17 143 -43 185 -43 21 0 42 -4 45 -10 3 -5 20 -10 38 -10 231 -5 305 -4
322 4 11 5 31 10 45 12 30 3 79 13 100 21 8 3 23 8 33 10 27 5 107 42 107 50
0 3 -3 3 -7 -1 -4 -3 -13 4 -20 16 l-14 23 6 -22z"/>
<path d="M3218 1213 c7 -3 16 -2 19 1 4 3 -2 6 -13 5 -11 0 -14 -3 -6 -6z"/>
<path d="M3777 1210 c-80 -10 -85 -22 -7 -16 36 2 66 9 68 15 2 6 2 10 0 10
-1 -1 -29 -5 -61 -9z"/>
<path d="M3629 1198 c18 -5 37 -6 42 -1 4 4 -11 9 -34 10 l-42 1 34 -10z"/>
<path d="M3868 1193 c7 -3 16 -2 19 1 4 3 -2 6 -13 5 -11 0 -14 -3 -6 -6z"/>
</g>
</svg>
